<?xml version="1.0" encoding="UTF-8" standalone="no"?>
<!-- Created with Inkscape (http://www.inkscape.org/) -->

<svg
   width="91.517944mm"
   height="79.031006mm"
   viewBox="0 0 91.517945 79.031006"
   version="1.1"
   id="svg1"
   xmlns="http://www.w3.org/2000/svg"
   xmlns:svg="http://www.w3.org/2000/svg">
  <defs
     id="defs1" />
  <g
     inkscape:label="Layer 1"
     inkscape:groupmode="layer"
     id="layer1"
     transform="translate(-61.461986,-118.25455)">
    <g
       id="g5">
      <path
         style="fill:none;"
         id="path3"
         d="M 138.63222,32.672495 116.25095,71.437997 93.869675,110.2035 71.488402,71.437997 49.107129,32.672495 l 44.762546,0 z"
         transform="translate(13.351282,86.082052)" />
      <path
         style="fill:none;"
         d="m 61.746052,157.76926 c 4.331,-2.99 8.661855,-5.533 12.992854,-4.871 4.331,0.663 8.661855,4.344 12.992851,7.039 4.331,2.695 8.661271,3.6 12.992713,1.738 4.33143,-1.862 8.66142,-5.946 12.99285,-7.812 4.33144,-1.866 8.66142,-0.954 12.99286,1.738 4.33143,2.693 8.66142,6.371 12.99285,7.039 4.33143,0.668 8.66142,-1.881 12.99285,-4.871"
         id="path5" />
    </g>
  </g>
</svg>
